<svg xmlns="http://www.w3.org/2000/svg" viewBox="0 0 256 256" role="img" aria-label="Weibo">
  <rect width="256" height="256" fill="#fff"/>
  <path d="M55 151c-16-24 6-52 35-71 28-19 61-24 70-8 6 11-2 24-12 34 18-2 37 2 46 15 15 22-7 54-49 72-41 18-80 7-90-42Z" fill="#e6162d"/>
  <ellipse cx="120" cy="149" rx="56" ry="38" fill="#fff" transform="rotate(-13 120 149)"/>
  <ellipse cx="116" cy="151" rx="40" ry="28" fill="#161616" transform="rotate(-13 116 151)"/>
  <circle cx="105" cy="143" r="10" fill="#fff"/>
  <circle cx="124" cy="154" r="6" fill="#fff"/>
  <path d="M171 58c18 3 30 16 33 34" fill="none" stroke="#f59b16" stroke-linecap="round" stroke-width="10"/>
  <path d="M179 77c8 3 13 8 16 17" fill="none" stroke="#f59b16" stroke-linecap="round" stroke-width="8"/>
  <text x="180" y="167" fill="#161616" font-family="'Microsoft YaHei', SimHei, Arial, sans-serif" font-size="47" font-weight="700" text-anchor="middle">微博</text>
</svg>
