<svg xmlns="http://www.w3.org/2000/svg" viewBox="0 0 250 203" role="img" aria-label="Weibo">
  <rect width="250" height="203" fill="#fff"/>
  <path fill="#ee1734" d="M8 149C-8 107 34 67 81 41c24-13 42-14 45-1 2 9-1 21-8 34 26-10 58-14 66 4 5 12 1 26-7 39 28 5 46 22 43 43-5 33-51 51-101 41-51-10-94-25-111-52Z"/>
  <ellipse cx="112" cy="140" rx="71" ry="49" fill="#fff" transform="rotate(-12 112 140)"/>
  <ellipse cx="103" cy="145" rx="48" ry="34" fill="#050505" transform="rotate(-12 103 145)"/>
  <ellipse cx="81" cy="155" rx="14" ry="12" fill="#fff" transform="rotate(-21 81 155)"/>
  <circle cx="103" cy="136" r="5" fill="#fff"/>
  <path d="M169 10c31-3 63 19 71 55" fill="none" stroke="#ff982c" stroke-width="18" stroke-linecap="round"/>
  <path d="M179 41c17 0 31 13 34 32" fill="none" stroke="#ff982c" stroke-width="15" stroke-linecap="round"/>
</svg>
